<svg xmlns="http://www.w3.org/2000/svg" width="512" height="512" viewBox="0 0 512 512" version="1.1"><path d="M 116.500 57.396 C 105.296 60.966, 96.523 68.572, 91.582 78.997 L 88.500 85.500 88.206 124.388 L 87.911 163.276 90.130 165.638 C 93.144 168.847, 98.834 168.870, 101.826 165.686 C 103.920 163.456, 104 162.574, 104 141.686 L 104 120 280 120 L 456 120 456 133.826 C 456 146.985, 456.112 147.756, 458.314 149.826 C 461.514 152.832, 466.957 152.739, 469.880 149.628 C 472.099 147.265, 472.107 147.135, 471.804 116.378 L 471.500 85.500 468.418 78.997 C 464.470 70.667, 457.333 63.530, 449.003 59.582 L 442.500 56.500 281.500 56.311 C 153.388 56.160, 119.683 56.382, 116.500 57.396 M 121.713 73.422 C 111.509 76.166, 105.349 84.449, 104.312 96.821 L 103.710 104 280 104 L 456.290 104 455.688 96.821 C 454.616 84.031, 447.829 75.416, 436.994 73.092 C 429.045 71.387, 128.108 71.703, 121.713 73.422 M 409.608 169.522 C 390.315 174.819, 374.637 190.650, 369.475 210.045 C 367.613 217.045, 367.613 230.955, 369.475 237.955 C 374.699 257.584, 390.416 273.301, 410.045 278.525 C 414.434 279.693, 424.503 279.979, 461.576 279.988 L 507.651 280 509.826 277.686 L 512 275.371 512 223.860 L 512 172.349 509.686 170.174 C 507.375 168.004, 507.295 168, 460.936 168.089 C 425.393 168.158, 413.352 168.494, 409.608 169.522 M 80 185.519 C 62.213 190.375, 46.373 203.332, 38.457 219.500 C 32.762 231.132, 32 235.879, 32 259.710 C 32 279.717, 31.889 281, 30.160 281 C 26.702 281, 16.011 287.147, 11.334 291.824 C 8.765 294.393, 5.277 299.421, 3.582 302.997 L 0.500 309.500 0.500 368 L 0.500 426.500 3.620 433 C 7.593 441.278, 14.722 448.407, 23 452.380 L 29.500 455.500 96 455.500 L 162.500 455.500 169 452.413 C 177.259 448.491, 184.385 441.356, 188.387 433 L 191.500 426.500 191.500 368 L 191.500 309.500 188.418 302.997 C 186.685 299.341, 183.192 294.350, 180.438 291.596 C 175.752 286.910, 165.369 281.002, 161.816 281.001 C 160.297 281, 160.098 278.734, 159.775 257.750 C 159.457 237.124, 159.171 233.765, 157.241 227.985 C 151.117 209.649, 136.005 194.248, 117.242 187.221 C 108.643 184, 88.874 183.097, 80 185.519 M 417.226 185.112 C 401.344 187.757, 387.707 201.670, 385.094 217.895 C 381.678 239.107, 396.603 259.458, 418.138 262.953 C 421.655 263.523, 440.487 263.988, 460.250 263.992 L 496 264 496 224 L 496 184 459.250 184.117 C 439.038 184.181, 420.127 184.629, 417.226 185.112 M 88.536 201.113 C 73.888 203.246, 59.898 213.666, 53.486 227.220 C 49.177 236.328, 48.045 243.992, 48.020 264.250 L 48 280 55.928 280 L 63.855 280 64.178 259.250 C 64.492 238.992, 64.563 238.382, 67.164 233.500 C 70.357 227.505, 75.871 222.064, 82 218.859 C 85.806 216.869, 87.966 216.506, 96 216.506 C 104.034 216.506, 106.194 216.869, 110 218.859 C 116.129 222.064, 121.643 227.505, 124.836 233.500 C 127.437 238.382, 127.508 238.992, 127.822 259.250 L 128.145 280 136.072 280 L 144 280 143.980 264.250 C 143.955 243.992, 142.823 236.328, 138.514 227.220 C 129.713 208.618, 109.502 198.060, 88.536 201.113 M 415.137 201.369 C 402.644 205.890, 396.408 221.480, 402.084 234 C 404.826 240.048, 407.542 242.813, 413.500 245.623 C 422.621 249.924, 435.350 247.783, 441.688 240.882 C 450.132 231.688, 449.730 214.438, 440.882 206.312 C 434.727 200.659, 423.210 198.448, 415.137 201.369 M 421.465 216.961 C 413.848 220.014, 415.844 231.333, 424 231.333 C 428.052 231.333, 431.333 228.052, 431.333 224 C 431.333 218.989, 425.963 215.158, 421.465 216.961 M 91.315 233.102 C 87.026 234.343, 82.300 239.260, 81.041 243.791 C 80.475 245.831, 80.009 254.813, 80.006 263.750 L 80 280 96 280 L 112 280 111.994 263.750 C 111.991 254.813, 111.546 245.905, 111.004 243.956 C 109.779 239.544, 104.474 234.283, 99.942 232.983 C 96 231.853, 95.613 231.858, 91.315 233.102 M 33.713 297.422 C 27.473 299.100, 22.121 303.524, 19.004 309.580 L 16.500 314.447 16.500 368 L 16.500 421.553 19.055 426.517 C 22.252 432.731, 28.373 437.485, 35.006 438.908 C 42.008 440.410, 149.992 440.410, 156.994 438.908 C 163.627 437.485, 169.748 432.731, 172.945 426.517 L 175.500 421.553 175.500 368 L 175.500 314.447 172.945 309.483 C 169.748 303.269, 163.627 298.515, 156.994 297.092 C 149.258 295.433, 40.023 295.725, 33.713 297.422 M 458.174 298.314 C 456.161 300.458, 456 301.639, 456 314.314 L 456 328 334.174 328 L 212.349 328 210.174 330.314 C 207.195 333.486, 207.261 338.957, 210.314 341.826 L 212.629 344 334.459 344 L 456.290 344 455.688 351.179 C 454.616 363.969, 447.829 372.584, 436.994 374.908 C 433.488 375.660, 397.705 376, 322.125 376 L 212.349 376 210.174 378.314 C 207.187 381.495, 207.261 386.957, 210.332 389.842 L 212.664 392.033 327.582 391.767 L 442.500 391.500 449 388.413 C 457.259 384.491, 464.385 377.356, 468.387 369 L 471.500 362.500 471.804 331.622 C 472.107 300.865, 472.099 300.735, 469.880 298.372 C 466.856 295.153, 461.170 295.126, 458.174 298.314 M 84.005 313.611 C 78.402 315.643, 72.055 319.957, 68.560 324.111 C 58.341 336.256, 57.066 354.977, 65.602 367.555 L 68.071 371.193 62.943 389.199 C 59.376 401.724, 57.997 408.163, 58.411 410.352 C 59.275 414.922, 62.503 419.726, 66.241 422.005 C 69.276 423.856, 71.317 423.993, 96 423.993 C 120.683 423.993, 122.724 423.856, 125.759 422.005 C 129.499 419.725, 132.726 414.921, 133.590 410.346 C 134.005 408.153, 132.660 401.843, 129.174 389.619 L 124.161 372.045 127.830 364.887 C 131.343 358.036, 131.500 357.296, 131.500 347.615 C 131.500 337.992, 131.333 337.192, 128.073 331.179 C 124.222 324.076, 118.222 318.289, 111.216 314.921 C 104.935 311.901, 90.623 311.212, 84.005 313.611 M 90.115 329.501 C 80.602 332.468, 74.672 342.842, 77.063 352.337 C 77.693 354.837, 79.672 358.597, 81.461 360.691 C 83.251 362.786, 85.033 365.509, 85.422 366.743 C 85.886 368.212, 84.339 375.277, 80.934 387.243 C 78.076 397.284, 75.524 406.063, 75.262 406.750 C 74.891 407.726, 79.434 408, 95.960 408 C 117.069 408, 117.133 407.993, 116.463 405.883 C 113.727 397.262, 106 369.183, 106 367.860 C 106 366.957, 107.761 364.087, 109.913 361.482 C 115.162 355.130, 116.566 349.460, 114.581 342.631 C 112.705 336.179, 107.951 331.392, 101.488 329.446 C 95.818 327.740, 95.762 327.740, 90.115 329.501" stroke="none" fill="#fffcfc" fill-rule="evenodd"/><path d="" stroke="none" fill="#fcfcfc" fill-rule="evenodd"/></svg>