<?xml version="1.0" encoding="UTF-8"?>
<svg id="Layer_2" data-name="Layer 2" xmlns="http://www.w3.org/2000/svg" viewBox="0 0 1104.48 957.31">
  <defs>
    <style>
      .cls-1 {
        fill: none;
      }

      .cls-1, .cls-2 {
        stroke-width: 0px;
      }

      .cls-2 {
        fill: #fff;
      }
    </style>
  </defs>
  <g id="Layer_1-2" data-name="Layer 1">
    <g>
      <g>
        <rect class="cls-2" x="116.51" y="119.75" width="868.22" height="68.69" rx="7.56" ry="7.56"/>
        <g>
          <path class="cls-2" d="M239.96,308.19h267.15c4.18,0,7.56,3.38,7.56,7.56v507.29c0,4.18,3.38,7.56,7.56,7.56h53.57c4.18,0,7.56-3.38,7.56-7.56v-507.29c0-4.18,3.38-7.56,7.56-7.56h270.37c4.18,0,7.56-3.38,7.56-7.56v-53.57c0-4.18-3.38-7.56-7.56-7.56H239.96c-4.18,0-7.56,3.38-7.56,7.56v53.57c0,4.18,3.38,7.56,7.56,7.56Z"/>
          <rect class="cls-2" x="267.82" y="362.66" width="68.69" height="281.19" rx="7.56" ry="7.56"/>
          <rect class="cls-2" x="390.3" y="362.66" width="68.69" height="390.67" rx="7.56" ry="7.56"/>
          <rect class="cls-2" x="760.44" y="362.66" width="68.69" height="281.19" rx="7.56" ry="7.56"/>
          <rect class="cls-2" x="638.09" y="362.66" width="68.69" height="390.67" rx="7.56" ry="7.56"/>
        </g>
      </g>
      <rect class="cls-1" width="1104.48" height="957.31"/>
    </g>
  </g>
</svg>