<svg xmlns="http://www.w3.org/2000/svg" width="150" height="150" viewBox="0 0 150 150" version="1.1"><path d="M 63.053 1.466 C 41.926 5.465, 24.329 16.753, 13.136 33.488 C -2.571 56.972, -4.165 85.378, 8.814 110.500 C 14.348 121.211, 28.863 135.304, 40 140.779 C 63.294 152.231, 87.043 152.235, 110 140.790 C 116.844 137.378, 120.374 134.696, 128.114 127.026 C 136.132 119.081, 138.413 116.089, 141.854 109 C 145.904 100.657, 149 90.818, 149 86.290 C 149 85.030, 149.450 84, 150 84 C 150.597 84, 151 80.147, 151 74.441 C 151 68.323, 150.640 65.104, 150 65.500 C 149.450 65.840, 149 65.286, 149 64.269 C 149 60.196, 145.768 50.067, 142.053 42.500 C 137.419 33.060, 129.196 22.774, 121.222 16.441 C 105.326 3.816, 82.155 -2.149, 63.053 1.466 M 61 11.489 C 41.395 15.899, 22.731 31.631, 14.717 50.500 C 12.291 56.214, 10 65.785, 10 70.210 L 10 74 31.500 74 L 53 74 53 69 L 53 64 44.500 64 L 36 64 36 50.500 L 36 37 75 37 L 114 37 114 50.500 L 114 64 105.500 64 L 97 64 97 69 L 97 74 118.500 74 L 140 74 140 70.182 C 140 64.555, 136.821 53.468, 132.924 45.500 C 130.383 40.305, 127.180 36.173, 120.500 29.472 C 111.292 20.235, 104.481 15.961, 93.328 12.418 C 86.333 10.196, 68.968 9.697, 61 11.489 M 46 50.500 L 46 54 75 54 L 104 54 104 50.500 L 104 47 75 47 L 46 47 46 50.500 M 63 97.500 L 63 131 66.500 131 L 70 131 70 97.500 L 70 64 66.500 64 L 63 64 63 97.500 M 80 97.500 L 80 131 83.500 131 L 87 131 87 97.500 L 87 64 83.500 64 L 80 64 80 97.500 M 0.365 75.500 C 0.368 81, 0.536 83.122, 0.738 80.216 C 0.941 77.311, 0.939 72.811, 0.734 70.216 C 0.528 67.622, 0.363 70, 0.365 75.500 M 10 79.500 L 10 82 31.500 82 L 53 82 53 79.500 L 53 77 31.500 77 L 10 77 10 79.500 M 97 79.500 L 97 82 118.500 82 L 140 82 140 79.500 L 140 77 118.500 77 L 97 77 97 79.500 M 10.755 88.500 L 11.233 91 32.117 91 L 53 91 53 88.500 L 53 86 31.639 86 L 10.277 86 10.755 88.500 M 97 88.500 L 97 91 118 91 L 139 91 139 88.500 L 139 86 118 86 L 97 86 97 88.500 M 12.896 96.250 C 13.715 98.466, 14.029 98.504, 33.364 98.771 L 53 99.042 53 96.521 L 53 94 32.532 94 L 12.064 94 12.896 96.250 M 97 97 L 97 100 116.393 100 C 133.154 100, 135.868 99.785, 136.393 98.418 C 138.085 94.009, 138.044 94, 117 94 L 97 94 97 97 M 16.527 105.051 C 18.578 109.019, 19.809 109.396, 24.421 107.468 C 28.704 105.679, 27.989 105.329, 45.750 117.915 L 53 123.052 53 112.526 L 53 102 33.974 102 L 14.949 102 16.527 105.051 M 97 110.115 L 97 118.230 99.750 116.448 C 101.263 115.468, 105.420 112.716, 108.989 110.333 C 116.332 105.430, 117.886 105.205, 125.192 107.981 C 130.795 110.110, 130.624 110.176, 133.562 104.750 L 135.051 102 116.026 102 L 97 102 97 110.115" stroke="none" fill="#fffcfc" fill-rule="evenodd"/><path d="" stroke="none" fill="#fcfcfc" fill-rule="evenodd"/></svg>