<svg xmlns="http://www.w3.org/2000/svg" width="768" height="768" viewBox="90 140 590 470" version="1.1"><path d="M 369.209 120.626 C 360.559 122.329, 352.797 125.607, 344.251 131.168 L 338.002 135.233 332.751 133.115 C 314.516 125.759, 287.549 122.963, 269.338 126.539 C 265.027 127.386, 260.053 128.281, 258.284 128.529 C 251.775 129.440, 231.860 137.509, 224.500 142.218 C 223.400 142.921, 219.457 145.448, 215.738 147.833 C 206.641 153.667, 189.676 170.698, 183.181 180.518 C 174.286 193.964, 168.185 207.538, 164.537 222 C 164.468 222.275, 163.787 226.213, 163.025 230.750 L 161.640 239 157.487 239 C 135.578 239, 119 255.627, 119 277.602 C 119 279.949, 119.434 283.011, 119.964 284.405 L 120.928 286.941 108.214 287.220 L 95.500 287.500 95.500 468 L 95.500 648.500 384 648.500 L 672.500 648.500 672.500 468 C 672.500 288.165, 672.493 287.499, 670.497 287.213 C 669.165 287.022, 667.852 285.345, 666.579 282.213 C 657.923 260.905, 635.216 243.632, 610.807 239.788 L 603.115 238.577 600.874 231.538 C 599.641 227.667, 596.915 221.036, 594.816 216.802 C 592.717 212.568, 591 208.835, 591 208.507 C 591 207.669, 581.166 193.185, 579.156 191.064 C 578.245 190.102, 575.800 187.232, 573.723 184.685 C 569.701 179.754, 556.453 168.361, 549 163.424 C 530.052 150.871, 503.571 143.044, 480 143.028 C 469.745 143.021, 448.620 145.991, 445.176 147.924 C 443.839 148.674, 441.756 147.208, 434.888 140.682 C 423.719 130.070, 424.252 130.457, 414.578 125.924 C 400.212 119.191, 385.327 117.453, 369.209 120.626 M 374.608 145.992 C 368.897 147.023, 363.801 148.974, 364.212 149.972 C 364.371 150.357, 367.655 153.374, 371.511 156.677 C 377.685 161.965, 383.429 168.022, 389.722 175.879 L 391.628 178.259 399.564 171.867 C 403.929 168.351, 409.637 164.130, 412.248 162.487 C 414.860 160.844, 416.997 159.177, 416.998 158.782 C 417.001 157.854, 407.258 150.802, 404 149.373 C 395.922 145.831, 383.451 144.397, 374.608 145.992 M 267 153.446 C 250.255 157.511, 236.653 163.983, 224 173.905 C 218.722 178.044, 207.885 189.988, 204.861 195 C 203.699 196.925, 202.467 198.725, 202.124 199 C 201.504 199.497, 198.588 205.307, 195.601 212 C 194.070 215.428, 192.059 226.802, 192.020 232.250 L 192 235 223.500 235 L 255 235 255 228.031 L 255 221.062 242.750 220.781 L 230.500 220.500 230.500 201 L 230.500 181.500 288 181.500 L 345.500 181.500 345.500 201 L 345.500 220.500 332.750 220.780 L 320 221.060 320 228.030 L 320 235 352.129 235 L 384.258 235 383.590 228.221 C 382.396 216.102, 380.537 210.531, 374.071 199.697 C 369.334 191.762, 365.661 187.159, 358.661 180.389 C 338.985 161.360, 317.749 152.487, 289.689 151.570 C 278.362 151.200, 275.159 151.465, 267 153.446 M 469.500 169.602 C 468.400 169.831, 463.675 170.764, 459 171.676 C 450.396 173.353, 437.815 177.904, 430.500 181.985 C 418.333 188.772, 404.368 201.042, 405.575 203.884 C 407.365 208.100, 412.085 223.886, 412.486 227 C 412.735 228.925, 413.402 232.924, 413.969 235.886 C 415.601 244.411, 415.176 262.360, 413.063 274.222 C 412.012 280.120, 410.866 285.407, 410.517 285.972 C 410.095 286.656, 414.274 287, 423.001 287 L 436.121 287 435.810 283.250 L 435.500 279.500 429.220 279.202 L 422.941 278.903 423.220 266.202 L 423.500 253.500 428.500 253.395 C 431.250 253.338, 434.063 253.225, 434.750 253.145 C 435.688 253.036, 436 249.256, 436 238 L 436 223 429.470 223 L 422.940 223 423.220 210.250 L 423.500 197.500 436.884 197.220 L 450.268 196.940 449.632 191.530 C 449.182 187.695, 449.361 185.892, 450.248 185.336 C 452.295 184.054, 473.155 183.884, 474.665 185.137 C 475.475 185.810, 476 188.358, 476 191.622 L 476 197 480.250 196.994 L 484.500 196.988 484.595 192.118 C 484.759 183.744, 484.470 183.927, 497.228 184.146 C 503.427 184.253, 509.063 184.768, 509.750 185.292 C 510.515 185.875, 511 188.668, 511 192.487 L 511 198.728 515.282 200.364 C 527.040 204.854, 537.342 217.899, 540.033 231.706 C 541.592 239.703, 539.988 249.153, 535.677 257.366 C 533.026 262.415, 532.803 263.390, 534.071 264.366 C 537.507 267.009, 543.374 275.372, 545.550 280.729 L 547.895 286.500 563.826 286.774 L 579.758 287.048 580.231 284.571 C 580.492 283.209, 580.586 275.886, 580.441 268.297 C 580.037 247.126, 575.419 232.209, 563.477 213.500 C 560.068 208.159, 546.821 193.991, 541.500 189.995 C 524.591 177.296, 505.134 170.468, 483.500 169.643 C 476.900 169.392, 470.600 169.373, 469.500 169.602 M 245 200.500 L 245 205 288 205 L 331 205 331 200.500 L 331 196 288 196 L 245 196 245 200.500 M 270 254 L 270 287 275 287 L 280 287 280 254 L 280 221 275 221 L 270 221 270 254 M 295 254 L 295 287 300 287 L 305 287 305 254 L 305 221 300 221 L 295 221 295 254 M 461.464 224.058 C 461.274 224.365, 461.205 231.115, 461.310 239.058 L 461.500 253.500 483 253.172 C 501.822 252.884, 504.874 252.613, 507.500 250.991 C 511.726 248.381, 514 244.011, 514 238.500 C 514 232.897, 511.719 228.616, 507.262 225.857 C 504.316 224.032, 502.120 223.836, 482.916 223.676 C 471.307 223.579, 461.653 223.751, 461.464 224.058 M 192.517 239.817 C 192.232 240.101, 192 241.833, 192 243.667 L 192 247 223.500 247 L 255 247 255 243.500 L 255 240 227 239.825 C 211.600 239.729, 197.657 239.571, 196.017 239.475 C 194.376 239.379, 192.801 239.532, 192.517 239.817 M 342.750 239.732 L 320 240.038 320 243.533 L 320 247.028 351.750 246.764 L 383.500 246.500 383.813 243.250 L 384.127 240 376.813 239.986 C 372.791 239.979, 368.600 239.850, 367.500 239.699 C 366.400 239.549, 355.262 239.564, 342.750 239.732 M 193.370 256.250 C 193.701 257.488, 193.979 258.837, 193.986 259.250 C 193.994 259.663, 207.725 260, 224.500 260 L 255 260 255 257 L 255 254 223.883 254 L 192.767 254 193.370 256.250 M 320 257 L 320 260 351 260 C 377.094 260, 382 259.776, 382 258.582 C 382 257.802, 382.273 256.452, 382.607 255.582 C 383.153 254.160, 380.018 254, 351.607 254 L 320 254 320 257 M 151.374 265.985 C 148.575 267.116, 145 272.218, 145 275.083 C 145 283.153, 149.845 287, 160.008 287 C 165.538 287, 166.132 286.810, 165.461 285.250 C 165.047 284.288, 164.046 279.900, 163.236 275.500 C 162.396 270.937, 161.088 266.963, 160.191 266.250 C 158.406 264.832, 154.519 264.715, 151.374 265.985 M 196 265.920 C 196 266.442, 196.439 268.024, 196.975 269.435 L 197.950 272 226.539 272 L 255.127 272 254.813 268.750 L 254.500 265.500 225.250 265.235 C 207.257 265.072, 196 265.335, 196 265.920 M 320.667 265.667 C 320.300 266.033, 320 267.845, 320 269.693 L 320 273.054 348.492 272.889 C 368.038 272.777, 377.257 272.376, 377.854 271.613 C 378.333 271.001, 379.020 269.262, 379.381 267.750 L 380.038 265 350.686 265 C 334.542 265, 321.033 265.300, 320.667 265.667 M 606.427 276.507 L 606.354 287 623.261 287 L 640.168 287 637.054 283.068 C 633.562 278.659, 625.796 272.055, 622 270.267 C 616.147 267.510, 611.585 266, 609.128 266.007 L 606.500 266.014 606.427 276.507 M 201 278.550 C 201 279.714, 203.935 284.701, 205.275 285.813 C 206.367 286.719, 208.064 286.479, 212.864 284.740 L 219.047 282.500 222.972 284.750 C 226.531 286.790, 228.205 287, 240.948 287 L 255 287 255 282.500 L 255 278 228 278 C 213.150 278, 201 278.247, 201 278.550 M 320 282.500 L 320 287 330.250 286.995 C 339.389 286.990, 340.934 286.723, 344.500 284.526 C 349.499 281.447, 350.049 281.446, 359.403 284.500 C 369.703 287.862, 370.567 287.769, 372.980 283.040 C 374.091 280.862, 375 278.837, 375 278.540 C 375 278.243, 362.625 278, 347.500 278 L 320 278 320 282.500 M 475.250 279.779 L 462 280.058 462 283.529 L 462 287 491.250 286.964 L 520.500 286.928 517.500 284.466 C 515.850 283.112, 513.150 281.592, 511.500 281.088 C 507.787 279.954, 492.742 279.411, 475.250 279.779 M 121 360 L 121 407 171.781 407 L 222.563 407 243.175 386.250 C 259.677 369.637, 263.932 364.802, 264.514 362 C 265.586 356.837, 267.668 353.271, 272.857 347.707 C 286.251 333.346, 303.423 330.947, 320.068 341.112 C 326.749 345.192, 326.808 345.251, 330.888 351.932 C 339.087 365.358, 338.991 379.495, 330.614 392.241 C 317.751 411.811, 291.291 414.567, 273.723 398.166 L 270.946 395.574 252.213 414.287 L 233.481 433 177.240 433 L 121 433 121 444 L 121 455 228.847 455 L 336.693 455 341.097 448.251 C 350.148 434.379, 365.880 428.195, 381.523 432.361 C 388 434.086, 390.435 435.504, 396.352 440.997 C 404.995 449.019, 408.968 457.461, 408.989 467.846 C 409.038 492.080, 384.777 510.338, 361.654 503.469 C 353.418 501.022, 346.109 495.434, 341.097 487.750 L 336.693 481 228.847 481 L 121 481 121 492 L 121 503 177.260 503 L 233.520 503 252 521.500 C 262.164 531.675, 270.977 540, 271.585 540 C 272.193 540, 273.547 539.048, 274.595 537.884 C 285.469 525.803, 305.803 523.514, 319.251 532.857 C 326.513 537.902, 333.284 546.176, 335.125 552.254 C 343.984 581.498, 317.706 607.842, 288.361 599.135 C 286.634 598.622, 282.771 596.636, 279.776 594.720 C 275.052 591.698, 273.438 590.125, 269.261 584.470 C 267.234 581.727, 265.160 577.157, 264.509 574 C 263.930 571.194, 259.698 566.384, 243.175 549.750 L 222.563 529 171.781 529 L 121 529 121 576 L 121 623 384 623 L 647 623 647 588.006 L 647 553.011 563.250 552.756 L 479.500 552.500 479.500 468 L 479.500 383.500 563.250 383.244 L 647 382.989 647 347.994 L 647 313 384 313 L 121 313 121 360 M 295.500 361.894 C 291.984 363.423, 289.778 366.793, 289.255 371.432 C 288.788 375.572, 289.038 376.238, 292.273 379.473 C 295.189 382.389, 296.527 383, 300 383 C 303.474 383, 304.811 382.389, 307.732 379.468 C 311.055 376.145, 311.225 375.659, 310.618 371.227 C 310.212 368.266, 309.106 365.651, 307.639 364.184 C 305.096 361.641, 298.809 360.455, 295.500 361.894 M 505 468 L 505 527 576 527 L 647 527 647 468 L 647 409 576 409 L 505 409 505 468 M 555.047 432.206 C 543.957 434.676, 531.622 446.808, 528.195 458.616 C 525.906 466.501, 527.211 478.141, 531.166 485.108 C 533.367 488.987, 543.174 498.937, 546.446 500.613 C 558.190 506.626, 572.342 506.257, 582.530 499.673 C 589.831 494.954, 591.873 492.971, 595.356 487.218 C 600.825 478.185, 602.255 466.576, 599.155 456.361 C 597.653 451.408, 591.526 442.507, 587.853 439.939 C 586.009 438.651, 584.275 437.350, 584 437.048 C 582.862 435.801, 578.468 433.744, 574.128 432.426 C 568.878 430.833, 561.590 430.749, 555.047 432.206 M 368.374 457.646 C 361.725 459.086, 358.935 470.109, 363.886 475.379 C 367.009 478.703, 373.593 479.779, 377.727 477.641 C 383.516 474.648, 384.609 465.155, 379.727 460.273 C 377.393 457.939, 372.380 456.779, 368.374 457.646 M 559.500 457.894 C 556.074 459.384, 554.034 462.471, 553.395 467.135 C 552.825 471.296, 553.043 471.904, 556.387 475.448 C 559.843 479.113, 560.191 479.246, 564.738 478.622 C 571.549 477.689, 574.385 474.566, 574.385 468 C 574.385 463.904, 573.897 462.442, 571.845 460.390 C 569.098 457.644, 562.939 456.398, 559.500 457.894 M 295.500 553.894 C 291.457 555.652, 289.500 558.976, 289.500 564.082 C 289.500 568.049, 290.005 569.459, 292.215 571.670 C 294.454 573.909, 295.818 574.385, 300 574.385 C 304.182 574.385, 305.546 573.909, 307.785 571.670 C 310.008 569.447, 310.500 568.056, 310.500 564 C 310.500 559.999, 310 558.546, 307.903 556.448 C 305.099 553.644, 298.974 552.383, 295.500 553.894" stroke="none" fill="#ffffff" fill-rule="evenodd"/></svg>
